<svg width="216" height="65" viewBox="0 0 216 65" fill="none" xmlns="http://www.w3.org/2000/svg">
<path d="M19.9503 26.432C17.3823 26.432 15.0543 25.88 12.9663 24.776C10.9023 23.648 9.27034 22.1 8.07034 20.132C6.89434 18.14 6.30634 15.896 6.30634 13.4C6.30634 10.904 6.89434 8.672 8.07034 6.704C9.27034 4.712 10.9023 3.164 12.9663 2.06C15.0543 0.931999 17.3943 0.368 19.9863 0.368C22.1703 0.368 24.1383 0.752 25.8903 1.52C27.6663 2.288 29.1543 3.392 30.3543 4.832L26.6103 8.288C24.9063 6.32 22.7943 5.336 20.2743 5.336C18.7143 5.336 17.3223 5.684 16.0983 6.38C14.8743 7.052 13.9143 8 13.2183 9.224C12.5463 10.448 12.2103 11.84 12.2103 13.4C12.2103 14.96 12.5463 16.352 13.2183 17.576C13.9143 18.8 14.8743 19.76 16.0983 20.456C17.3223 21.128 18.7143 21.464 20.2743 21.464C22.7943 21.464 24.9063 20.468 26.6103 18.476L30.3543 21.932C29.1543 23.396 27.6663 24.512 25.8903 25.28C24.1143 26.048 22.1343 26.432 19.9503 26.432ZM57.4047 0.799998V26H51.5727V15.668H40.1247V26H34.2927V0.799998H40.1247V10.736H51.5727V0.799998H57.4047ZM74.7069 0.368C77.0349 0.368 79.0629 0.823999 80.7909 1.736C82.5189 2.648 83.8629 3.992 84.8229 5.768C85.7829 7.544 86.2629 9.692 86.2629 12.212V26H80.4309V19.952H68.9109V26H63.1509V12.212C63.1509 9.692 63.6309 7.544 64.5909 5.768C65.5509 3.992 66.8949 2.648 68.6229 1.736C70.3509 0.823999 72.3789 0.368 74.7069 0.368ZM80.4309 15.272V11.672C80.4309 9.584 79.9149 8.012 78.8829 6.956C77.8509 5.876 76.4469 5.336 74.6709 5.336C72.8709 5.336 71.4549 5.876 70.4229 6.956C69.4149 8.012 68.9109 9.584 68.9109 11.672V15.272H80.4309ZM90.9033 13.616H101.091V18.116H90.9033V13.616ZM200.789 0.368C203.789 0.368 206.129 1.316 207.809 3.212C209.489 5.084 210.329 7.76 210.329 11.24V26H204.497V11.42C204.497 9.404 204.017 7.892 203.057 6.884C202.121 5.852 200.813 5.336 199.133 5.336C197.357 5.336 195.929 5.888 194.849 6.992C193.793 8.072 193.265 9.68 193.265 11.816V26H187.433V0.799998H193.085V3.86C193.949 2.708 195.029 1.844 196.325 1.268C197.621 0.667999 199.109 0.368 200.789 0.368ZM53.3583 51.128C57.5343 50.768 60.2463 49.208 61.4223 47.12C62.5983 49.208 65.3103 50.768 69.4623 51.128L70.5663 48.68C66.4383 48.32 64.2783 46.88 63.7263 45.392H69.6063V42.872H53.2623V45.392H59.1183C58.5663 46.88 56.4062 48.32 52.3023 48.68L53.3583 51.128ZM65.8383 60.08C65.8383 61.184 64.3263 61.664 61.3743 61.664C58.4223 61.664 56.9103 61.184 56.9103 60.08C56.9103 58.952 58.4223 58.472 61.3743 58.472C64.3263 58.472 65.8383 58.952 65.8383 60.08ZM71.4063 54.512V51.992H51.4383V54.512H59.8383V56.12C55.9983 56.432 53.7183 57.8 53.7183 60.08C53.7183 62.624 56.5983 64.088 61.3743 64.088C66.1503 64.088 69.0543 62.624 69.0543 60.08C69.0543 57.824 66.7983 56.456 63.0063 56.144V54.512H71.4063ZM90.7244 56.552C91.6124 51.848 91.6124 48.728 91.6124 45.968V43.856H75.5564V46.376H88.4444C88.4444 48.944 88.3964 52.016 87.5564 56.192L90.7244 56.552ZM83.7644 58.856V51.248H80.5964V58.856H73.5404V61.4H93.5324V58.856H83.7644ZM103.587 48.08H107.979V45.56H103.611V42.488H100.443V45.56H95.9545V48.08H100.443V48.848C100.443 52.16 98.7865 55.904 95.2105 57.56L96.9145 59.984C99.3865 58.88 101.091 56.648 102.051 54.008C102.963 56.456 104.571 58.52 106.923 59.6L108.603 57.2C105.147 55.544 103.587 51.968 103.587 48.848V48.08ZM116.115 50.552H112.899V41.984H109.731V64.064H112.899V53.168H116.115V50.552ZM133.038 43.664H129.87V46.88C129.87 51.176 128.046 55.448 124.182 57.104L126.078 59.72C128.718 58.472 130.518 56.096 131.502 53.144C132.486 55.856 134.19 58.04 136.734 59.192L138.534 56.624C134.79 55.016 133.038 50.984 133.038 46.88V43.664ZM139.614 41.936V64.112H142.782V41.936H139.614ZM153.604 43.88H150.556V47.6C150.556 51.368 149.38 55.328 146.14 57.296L148.036 59.672C150.028 58.472 151.324 56.36 152.092 53.912C152.788 56.144 153.964 58.016 155.836 59.168L157.564 56.72C154.564 54.728 153.604 51.056 153.604 47.48V43.88ZM158.02 49.424H155.26V51.992H158.02V63.08H160.972V42.32H158.02V49.424ZM162.508 41.96V64.064H165.508V41.96H162.508ZM177.439 55.016C181.279 54.32 184.063 52.4 185.431 49.76C186.823 52.352 189.631 54.2 193.519 54.896L194.719 52.4C189.967 51.704 187.399 49.04 187.111 46.16H193.735V43.64H177.079V46.16H183.703C183.415 49.04 180.847 51.8 176.215 52.52L177.439 55.016ZM187.015 58.928V54.056H183.847V58.928H175.423V61.496H195.439V58.928H187.015ZM211.325 44.408H206.285V42.032H203.117V44.408H198.053V46.88H211.325V44.408ZM202.229 51.92C202.229 50.768 203.237 50.144 204.701 50.144C206.189 50.144 207.173 50.768 207.173 51.92C207.173 53.048 206.189 53.672 204.701 53.672C203.237 53.672 202.229 53.048 202.229 51.92ZM206.285 55.904C208.637 55.448 210.173 53.96 210.173 51.92C210.173 49.424 207.917 47.744 204.701 47.744C201.461 47.744 199.205 49.424 199.205 51.92C199.205 53.96 200.741 55.448 203.117 55.904V57.776C201.149 57.824 199.277 57.824 197.621 57.824L198.005 60.392C201.917 60.392 207.029 60.368 211.853 59.48L211.613 57.2C209.885 57.44 208.085 57.56 206.285 57.656V55.904ZM212.765 41.96V64.064H215.933V41.96H212.765Z" fill="#5F5F5F"/>
<path d="M117.966 26.432C115.398 26.432 113.07 25.88 110.982 24.776C108.918 23.648 107.286 22.1 106.086 20.132C104.91 18.14 104.322 15.896 104.322 13.4C104.322 10.904 104.91 8.672 106.086 6.704C107.286 4.712 108.918 3.164 110.982 2.06C113.07 0.931999 115.41 0.368 118.002 0.368C120.186 0.368 122.154 0.752 123.906 1.52C125.682 2.288 127.17 3.392 128.37 4.832L124.626 8.288C122.922 6.32 120.81 5.336 118.29 5.336C116.73 5.336 115.338 5.684 114.114 6.38C112.89 7.052 111.93 8 111.234 9.224C110.562 10.448 110.226 11.84 110.226 13.4C110.226 14.96 110.562 16.352 111.234 17.576C111.93 18.8 112.89 19.76 114.114 20.456C115.338 21.128 116.73 21.464 118.29 21.464C120.81 21.464 122.922 20.468 124.626 18.476L128.37 21.932C127.17 23.396 125.682 24.512 123.906 25.28C122.13 26.048 120.15 26.432 117.966 26.432ZM143.648 0.368C145.976 0.368 148.004 0.823999 149.732 1.736C151.46 2.648 152.804 3.992 153.764 5.768C154.724 7.544 155.204 9.692 155.204 12.212V26H149.372V19.952H137.852V26H132.092V12.212C132.092 9.692 132.572 7.544 133.532 5.768C134.492 3.992 135.836 2.648 137.564 1.736C139.292 0.823999 141.32 0.368 143.648 0.368ZM149.372 15.272V11.672C149.372 9.584 148.856 8.012 147.824 6.956C146.792 5.876 145.388 5.336 143.612 5.336C141.812 5.336 140.396 5.876 139.364 6.956C138.356 8.012 137.852 9.584 137.852 11.672V15.272H149.372ZM177.017 26L172.157 18.98H171.869H166.793V26H160.961V0.799998H171.869C174.101 0.799998 176.033 1.172 177.665 1.916C179.321 2.66 180.593 3.716 181.481 5.084C182.369 6.452 182.813 8.072 182.813 9.944C182.813 11.816 182.357 13.436 181.445 14.804C180.557 16.148 179.285 17.18 177.629 17.9L183.281 26H177.017ZM176.909 9.944C176.909 8.528 176.453 7.448 175.541 6.704C174.629 5.936 173.297 5.552 171.545 5.552H166.793V14.336H171.545C173.297 14.336 174.629 13.952 175.541 13.184C176.453 12.416 176.909 11.336 176.909 9.944ZM13.6851 52.328C10.1811 51.392 8.64513 49.064 8.59713 46.76H12.9651V44.264H8.59713V41.888H5.42913V44.264H1.10913V46.76H5.42913C5.38113 49.256 3.84513 51.728 0.317125 52.712L1.82913 55.184C4.34913 54.416 6.10113 52.88 7.06113 50.936C8.04513 52.712 9.74913 54.128 12.2451 54.8L13.6851 52.328ZM3.12513 58.952H14.7171V64.088H17.8851V56.432H3.12513V58.952ZM20.8131 47.408H17.8851V41.96H14.7171V55.496H17.8851V50H20.8131V47.408ZM35.5953 44.288H30.6513V41.936H27.4593V44.288H22.5633V46.76H35.5713L35.5953 44.288ZM26.6673 51.8C26.6673 50.6 27.6513 49.952 29.0673 49.952C30.4593 49.952 31.4673 50.6 31.4673 51.8C31.4673 53.024 30.4593 53.672 29.0673 53.672C27.6513 53.672 26.6673 53.024 26.6673 51.8ZM34.4913 51.8C34.4913 49.304 32.2353 47.552 29.0673 47.552C25.8993 47.552 23.6433 49.304 23.6433 51.8C23.6433 54.344 25.8993 56.072 29.0673 56.072C32.2353 56.072 34.4913 54.344 34.4913 51.8ZM28.8753 57.272H25.7073V63.68H40.7553V61.16H28.8753V57.272ZM39.9633 48.704V41.96H36.7953V58.496H39.9633V51.32H42.8913V48.704H39.9633Z" fill="#5061FF"/>
</svg>
