<?xml version="1.0" encoding="utf-8"?>
<!-- Generator: Adobe Illustrator 22.0.1, SVG Export Plug-In . SVG Version: 6.00 Build 0)  -->
<svg version="1.1" id="Layer_1" xmlns="http://www.w3.org/2000/svg" xmlns:xlink="http://www.w3.org/1999/xlink" x="0px" y="0px"
	 viewBox="0 0 390 239.3" style="enable-background:new 0 0 390 239.3;" xml:space="preserve">
<style type="text/css">
	.st0{fill:#5061FF;}
	.st1{opacity:0.75;}
	.st2{fill:#FFFFFF;}
	.st3{fill:#5F5F5F;}
	.st4{fill:none;stroke:#FFFFFF;stroke-width:4.46;stroke-miterlimit:10;}
	.st5{fill:none;stroke:#FFFFFF;stroke-width:7.48;stroke-miterlimit:10;}
	.st6{fill:none;stroke:#FFFFFF;stroke-width:3;stroke-miterlimit:10;}
	.st7{font-family:'NanumSquareRoundEB';}
	.st8{font-size:29px;}
</style>
<title>intro</title>
<rect x="-1198.5" y="-38.9" class="st0" width="390" height="844"/>
<rect x="-478" class="st0" width="390" height="239.3"/>
<g class="st1">
	<text transform="matrix(1 0 0 1 -1158.1 225.1178)" style="font-family:'NanumSquareOTFB-KSCpc-EUC-H'; font-size:20.81px;">착한 중고차 시세란?</text>
</g>
<text transform="matrix(1 0 0 1 -1160.1 224.1178)" class="st2" style="font-family:'NanumSquareOTFB-KSCpc-EUC-H'; font-size:20.81px;">착한 중고차 시세란?</text>
<path class="st2" d="M-863.4,38.3h-271.2c-7.7,0-13.9,6.2-13.9,13.9l0,0V102h299V52.2C-849.5,44.5-855.7,38.3-863.4,38.3z"/>
<path class="st2" d="M-1148.5,150c0,7.7,6.2,13.9,13.9,13.9h271.2c7.7,0,13.9-6.2,13.9-13.9v-44.2h-299V150z"/>
<path class="st3" d="M-1099.8,82.7c-2.7,0-5.3-0.6-7.7-1.8c-6.9-4-9.4-12.8-5.4-19.7c0,0,0-0.1,0-0.1c1.3-2.1,3.1-3.9,5.4-5.1
	c4.4-2.3,9.6-2.5,14.2-0.6c1.9,0.8,3.6,2,4.9,3.6l-4.1,3.8c-1.7-2.1-4.3-3.3-6.9-3.2c-1.6,0-3.2,0.4-4.6,1.1
	c-1.3,0.7-2.4,1.8-3.2,3.1c-1.5,2.9-1.5,6.3,0,9.2c0.7,1.3,1.8,2.4,3.2,3.2c1.4,0.8,3,1.1,4.6,1.1c2.7,0,5.2-1.1,6.9-3.2l4.1,3.8
	c-1.3,1.6-3,2.9-4.9,3.7C-1095.3,82.4-1097.6,82.8-1099.8,82.7z M-1058.8,54.7v27.6h-6.4V70.9h-12.5v11.3h-6.4V54.7h6.4v10.9h12.5
	V54.7H-1058.8z M-1039.8,54.2c2.3-0.1,4.6,0.5,6.7,1.5c1.9,1,3.4,2.5,4.4,4.4c1.1,2.2,1.7,4.6,1.6,7.1v15.1h-6.4v-6.6h-12.7v6.6
	h-6.3V67.2c-0.1-2.4,0.5-4.9,1.6-7.1c1-1.9,2.5-3.4,4.4-4.4C-1044.4,54.6-1042.1,54.1-1039.8,54.2L-1039.8,54.2z M-1033.5,70.5v-3.9
	c0.1-1.9-0.5-3.7-1.7-5.2c-2.6-2.3-6.6-2.3-9.3,0c-1.2,1.4-1.8,3.3-1.7,5.2v3.9L-1033.5,70.5z M-1022,68.7h11.2v4.9h-11.2
	L-1022,68.7z M-901.7,54.2c2.9-0.2,5.7,1,7.7,3.1c1.8,2,2.8,5,2.8,8.8v16.2h-6.4v-16c0.1-1.8-0.4-3.6-1.6-5
	c-1.1-1.2-2.7-1.8-4.3-1.7c-1.7-0.1-3.4,0.6-4.7,1.8c-1.3,1.5-1.9,3.4-1.7,5.3v15.5h-6.4V54.7h6.2v3.4c0.9-1.2,2.1-2.2,3.5-2.8
	C-905.1,54.5-903.4,54.2-901.7,54.2z M-1063.2,132.3c4.6-0.4,7.5-2.1,8.8-4.4c1.3,2.3,4.3,4,8.8,4.4l1.2-2.7c-4.5-0.4-6.9-2-7.5-3.6
	h6.4v-2.8h-17.9v2.8h6.4c-0.6,1.6-3,3.2-7.5,3.6L-1063.2,132.3z M-1049.5,142.1c0,1.2-1.7,1.7-4.9,1.7s-4.9-0.5-4.9-1.7
	s1.7-1.8,4.9-1.8S-1049.5,140.8-1049.5,142.1z M-1043.4,136v-2.8h-21.9v2.8h9.2v1.8c-4.2,0.3-6.7,1.8-6.7,4.3c0,2.8,3.2,4.4,8.4,4.4
	c5.2,0,8.4-1.6,8.4-4.4c0-2.5-2.5-4-6.6-4.3V136H-1043.4z M-1022.2,138.2c0.7-3.8,1.1-7.7,1-11.6v-2.3h-17.7v2.8h14.1
	c0.1,3.6-0.3,7.2-1,10.7L-1022.2,138.2z M-1029.9,140.7v-8.3h-3.5v8.3h-7.7v2.8h21.9v-2.8H-1029.9z M-1008.2,128.9h4.8v-2.8h-4.8
	v-3.4h-3.5v3.4h-4.9v2.8h4.9v0.8c0.1,4-2.1,7.7-5.7,9.5l1.9,2.7c2.7-1.3,4.7-3.7,5.6-6.6c0.9,2.7,2.8,4.9,5.3,6.2l1.8-2.6
	c-3.4-1.7-5.6-5.3-5.5-9.1V128.9z M-994.5,131.6h-3.5v-9.4h-3.5v24.2h3.5v-11.9h3.5V131.6z M-976,124.1h-3.4v3.5
	c0,4.7-2,9.4-6.2,11.2l2.1,2.9c2.9-1.5,5-4.1,5.9-7.2c0.9,2.9,3,5.3,5.7,6.6l2-2.8c-4.1-1.8-6-6.2-6-10.7L-976,124.1z M-968.8,122.2
	v24.3h3.5v-24.3L-968.8,122.2z M-953.4,124.3h-3.3v4.1c0,4.1-1.3,8.5-4.8,10.6l2.1,2.6c2.2-1.5,3.8-3.7,4.4-6.3
	c0.6,2.4,2.1,4.4,4.1,5.8l1.9-2.7c-3.3-2.2-4.3-6.2-4.3-10.1V124.3z M-948.6,130.4h-3v2.8h3v12.1h3.2v-22.7h-3.2V130.4z
	 M-943.7,122.2v24.2h3.3v-24.2L-943.7,122.2z M-927.3,136.5c4.2-0.8,7.3-2.9,8.8-5.8c1.5,2.8,4.6,4.9,8.8,5.6l1.3-2.7
	c-5.2-0.8-8-3.7-8.3-6.8h7.2v-2.8h-18.2v2.8h7.3c-0.3,3.1-3.1,6.2-8.2,7L-927.3,136.5z M-916.8,140.8v-5.3h-3.5v5.3h-9.2v2.8h21.9
	v-2.8H-916.8z M-890.2,124.9h-5.5v-2.6h-3.5v2.6h-5.5v2.7h14.6L-890.2,124.9z M-900.2,133.1c0-1.3,1.1-2,2.7-2s2.7,0.7,2.7,2
	s-1.1,1.9-2.7,1.9S-900.2,134.4-900.2,133.1L-900.2,133.1z M-895.8,137.5c2.6-0.5,4.3-2.1,4.3-4.4c0-2.7-2.5-4.6-6-4.6
	c-3.5,0-6,1.8-6,4.6c0,2.2,1.7,3.9,4.3,4.4v2.1c-2.2,0.1-4.2,0.1-6,0.1l0.4,2.8c5.1,0.1,10.1-0.2,15.2-1l-0.3-2.5
	c-1.9,0.3-3.9,0.4-5.8,0.5L-895.8,137.5z M-888.7,122.2v24.2h3.5v-24.2L-888.7,122.2z"/>
<path class="st0" d="M-992.4,82.7c-2.7,0-5.3-0.6-7.6-1.8c-6.9-4-9.4-12.8-5.4-19.8c0,0,0,0,0,0c1.3-2.1,3.1-3.9,5.4-5.1
	c4.4-2.3,9.6-2.5,14.1-0.6c1.9,0.8,3.6,2,4.9,3.6l-4.1,3.8c-1.7-2.1-4.3-3.3-6.9-3.2c-1.6,0-3.2,0.4-4.6,1.1
	c-1.3,0.7-2.4,1.8-3.1,3.1c-1.5,2.9-1.5,6.3,0,9.2c0.7,1.3,1.8,2.4,3.1,3.2c1.4,0.8,3,1.1,4.6,1.1c2.7,0,5.3-1.2,6.9-3.3l4.1,3.8
	c-1.3,1.6-3,2.9-4.9,3.7C-988,82.3-990.2,82.8-992.4,82.7z M-964.3,54.2c2.3-0.1,4.6,0.5,6.7,1.5c1.9,1,3.4,2.5,4.4,4.4
	c1.1,2.2,1.7,4.6,1.6,7.1v15.1h-6.4v-6.6h-12.6v6.6h-6.3V67.2c-0.1-2.4,0.5-4.9,1.6-7.1c1-1.9,2.5-3.4,4.4-4.4
	C-968.9,54.6-966.6,54.1-964.3,54.2z M-958,70.5v-3.9c0.1-1.9-0.5-3.7-1.7-5.2c-2.6-2.3-6.6-2.3-9.3,0c-1.2,1.4-1.8,3.3-1.7,5.2v3.9
	H-958z M-927.8,82.3l-5.3-7.7h-5.9v7.7h-6.4V54.7h11.9c2.2-0.1,4.3,0.4,6.4,1.2c1.7,0.7,3.2,1.9,4.2,3.5c1,1.6,1.5,3.4,1.5,5.3
	c0.1,3.8-2.1,7.3-5.7,8.7l6.2,8.9H-927.8z M-927.9,64.7c0.1-1.4-0.5-2.7-1.5-3.6c-1.3-0.9-2.8-1.4-4.4-1.3h-5.2v9.6h5.2
	c1.6,0.1,3.1-0.3,4.4-1.3C-928.4,67.3-927.8,66-927.9,64.7L-927.9,64.7z M-1106.7,133.6c-3.8-1-5.5-3.6-5.6-6.1h4.8v-2.7h-4.8v-2.6
	h-3.5v2.6h-4.7v2.7h4.7c0,2.7-1.7,5.4-5.6,6.5l1.7,2.7c2.5-0.7,4.6-2.4,5.7-4.7c1.2,2.1,3.3,3.7,5.7,4.2L-1106.7,133.6z
	 M-1118.2,140.8h12.7v5.6h3.5v-8.4h-16.2V140.8z M-1098.8,128.2h-3.2v-6h-3.4v14.8h3.5v-6h3.2L-1098.8,128.2z M-1082.7,124.8h-5.4
	v-2.6h-3.5v2.6h-5.4v2.7h14.2L-1082.7,124.8z M-1092.4,133.1c0-1.3,1.1-2,2.6-2c1.6,0,2.6,0.7,2.6,2s-1.1,2-2.6,2
	C-1091.3,135.1-1092.4,134.4-1092.4,133.1z M-1083.9,133.1c0-2.7-2.5-4.7-5.9-4.7c-3.5,0-5.9,1.9-5.9,4.7s2.5,4.7,5.9,4.7
	C-1086.3,137.7-1083.9,135.8-1083.9,133.1z M-1090,139.1h-3.5v7h16.5v-2.8h-13L-1090,139.1z M-1077.9,129.7v-7.4h-3.5v18.1h3.5v-7.9
	h3.2v-2.9H-1077.9z"/>
<g>
	
		<image style="overflow:visible;opacity:0.75;" width="330" height="95" xlink:href="7C113AE2.png"  transform="matrix(1 0 0 1 -447.977 47.0577)">
	</image>
	<g>
		<path class="st2" d="M-147.4,55.6h-271.2c-7.7,0-13.9,6.2-13.9,13.9l0,0v49.8h299V69.5C-133.5,61.8-139.7,55.6-147.4,55.6z"/>
	</g>
</g>
<path class="st3" d="M-383.8,100.1c-2.7,0-5.3-0.6-7.6-1.8c-6.9-4-9.4-12.8-5.4-19.7c0,0,0-0.1,0-0.1c1.3-2.1,3.1-3.9,5.4-5.1
	c4.4-2.3,9.6-2.5,14.1-0.6c1.9,0.8,3.6,2,4.9,3.6l-4.1,3.8c-1.7-2.1-4.3-3.3-6.9-3.2c-1.6,0-3.2,0.4-4.6,1.1
	c-1.3,0.7-2.4,1.8-3.2,3.1c-1.5,2.9-1.5,6.3,0,9.2c0.7,1.3,1.8,2.4,3.2,3.2c1.4,0.8,3,1.1,4.6,1.1c2.7,0,5.2-1.1,6.9-3.2l4.1,3.8
	c-1.3,1.6-3,2.9-4.9,3.7C-379.3,99.7-381.6,100.1-383.8,100.1z M-342.8,72v27.6h-6.4V88.3h-12.5v11.3h-6.4V72h6.4v10.9h12.5V72
	H-342.8z M-323.8,71.5c2.3-0.1,4.6,0.5,6.7,1.5c1.9,1,3.4,2.5,4.4,4.4c1.1,2.2,1.7,4.6,1.6,7.1v15.1h-6.4V93h-12.7v6.6h-6.3V84.5
	c-0.1-2.4,0.5-4.9,1.6-7.1c1-1.9,2.5-3.4,4.4-4.4C-328.4,72-326.1,71.5-323.8,71.5L-323.8,71.5z M-317.5,87.9v-3.9
	c0.1-1.9-0.5-3.7-1.7-5.2c-2.6-2.3-6.6-2.3-9.3,0c-1.2,1.4-1.8,3.3-1.6,5.2v3.9L-317.5,87.9z M-306,86h11.2V91h-11.2L-306,86z
	 M-185.7,71.5c2.9-0.2,5.7,1,7.7,3.1c1.8,2,2.8,5,2.8,8.8v16.2h-6.4v-16c0.1-1.8-0.4-3.6-1.6-5c-1.1-1.2-2.7-1.8-4.3-1.7
	c-1.7-0.1-3.4,0.6-4.7,1.8c-1.3,1.5-1.9,3.4-1.7,5.3v15.5h-6.4V72h6.2v3.4c0.9-1.2,2.1-2.2,3.5-2.8
	C-189.1,71.9-187.4,71.5-185.7,71.5z"/>
<path class="st0" d="M-276.4,100.1c-2.7,0-5.3-0.6-7.6-1.8c-6.9-4-9.4-12.8-5.4-19.8c0,0,0,0,0,0c1.3-2.1,3.1-3.9,5.4-5.1
	c4.4-2.3,9.6-2.5,14.1-0.6c1.9,0.8,3.6,2,4.9,3.6l-4.1,3.8c-1.7-2.1-4.3-3.3-6.9-3.2c-1.6,0-3.2,0.4-4.6,1.1
	c-1.3,0.7-2.4,1.8-3.1,3.1c-1.5,2.9-1.5,6.3,0,9.2c0.7,1.3,1.8,2.4,3.1,3.2c1.4,0.8,3,1.1,4.6,1.1c2.7,0,5.3-1.2,6.9-3.3l4.1,3.8
	c-1.3,1.6-3,2.9-4.9,3.7C-272,99.7-274.2,100.1-276.4,100.1z M-248.3,71.5c2.3-0.1,4.6,0.5,6.7,1.5c1.9,1,3.4,2.5,4.4,4.4
	c1.1,2.2,1.7,4.6,1.6,7.1v15.1h-6.4V93h-12.6v6.6h-6.3V84.5c-0.1-2.4,0.5-4.9,1.6-7.1c1-1.9,2.5-3.4,4.4-4.4
	C-252.9,72-250.6,71.5-248.3,71.5z M-242.1,87.9v-3.9c0.1-1.9-0.5-3.7-1.7-5.2c-2.6-2.3-6.6-2.3-9.3,0c-1.2,1.4-1.8,3.3-1.6,5.2v3.9
	H-242.1z M-211.8,99.6l-5.3-7.7h-5.9v7.7h-6.4V72h11.9c2.2-0.1,4.3,0.4,6.4,1.2c1.7,0.7,3.2,1.9,4.2,3.5c1,1.6,1.5,3.4,1.5,5.3
	c0.1,3.8-2.1,7.3-5.7,8.7l6.2,8.9H-211.8z M-211.9,82c0.1-1.4-0.5-2.7-1.5-3.6c-1.3-0.9-2.8-1.4-4.4-1.3h-5.2v9.6h5.2
	c1.6,0.1,3.1-0.3,4.4-1.3C-212.4,84.7-211.8,83.4-211.9,82L-211.9,82z"/>
<circle class="st2" cx="-1151.5" cy="200.1" r="3"/>
<circle class="st2" cx="-1132.5" cy="200.1" r="3"/>
<circle class="st2" cx="-1110.5" cy="529.1" r="3"/>
<circle class="st2" cx="-1091.5" cy="529.1" r="3"/>
<text transform="matrix(1 0 0 1 -1148.1699 281.0578)" class="st2" style="font-family:'NanumSquareOTFB-KSCpc-EUC-H'; font-size:17px;">작년 국내 중고차 거래량은 연간 </text>
<text transform="matrix(1 0 0 1 -925.8101 281.0578)" class="st2" style="font-family:'NanumSquareOTFB-KSCpc-EUC-H'; font-size:19px;">250만대</text>
<image style="overflow:visible;opacity:0.75;enable-background:new    ;" width="343" height="80" xlink:href="7C113AE6.png"  transform="matrix(1 0 0 1 -1170.5 240.0578)">
</image>
<path class="st4" d="M-1147,249.1h296c6.4,0,11.5,5.1,11.5,11.5v33c0,6.4-5.1,11.5-11.5,11.5h-296c-6.4,0-11.5-5.1-11.5-11.5v-33
	C-1158.5,254.2-1153.4,249.1-1147,249.1z"/>
<image style="overflow:visible;opacity:0.75;enable-background:new    ;" width="349" height="188" xlink:href="7C113AE1.png"  transform="matrix(0.9947 0 0 0.9947 -1172.4218 416.7078)">
</image>
<path class="st5" d="M-1147,428.1h296c6.4,0,11.5,5.1,11.5,11.5v134.5c0,6.4-5.1,11.5-11.5,11.5h-296c-6.4,0-11.5-5.1-11.5-11.5
	V439.6C-1158.5,433.2-1153.4,428.1-1147,428.1z"/>
<text transform="matrix(1 0 0 1 -1160.5 338.0578)" class="st2" style="font-family:'NanumSquareOTFB-KSCpc-EUC-H'; font-size:16px;">250만대 거래중, 매매상의 개입 없이 당사자들이 </text>
<text transform="matrix(1 0 0 1 -1160.5 367.0578)" class="st2" style="font-family:'NanumSquareOTFB-KSCpc-EUC-H'; font-size:18px;">직접 중고차를 거래</text>
<text transform="matrix(1 0 0 1 -1019.5601 367.0578)" class="st2" style="font-family:'NanumSquareOTFB-KSCpc-EUC-H'; font-size:16px;">하는 비중이 54.7%으로 </text>
<text transform="matrix(1 0 0 1 -1160.5 395.0578)" class="st2" style="font-family:'NanumSquareOTFB-KSCpc-EUC-H'; font-size:16px;">약 137만 6000대가 거래 되었습니다.</text>
<text transform="matrix(1 0 0 1 -1164.38 646.0577)" class="st2" style="font-family:'NanumSquareOTFB-KSCpc-EUC-H'; font-size:16px;">이처럼 혼란스러운 중고차시장에 인공지능을 활용</text>
<text transform="matrix(1 0 0 1 -1164.38 670.0577)" class="st2" style="font-family:'NanumSquareOTFB-KSCpc-EUC-H'; font-size:16px;">중고차의 착한시세를 예측하는 서비스 입니다.</text>
<text transform="matrix(1 0 0 1 -1124.7999 550.0878)" class="st2" style="font-family:'NanumSquareOTFB-KSCpc-EUC-H'; font-size:18px;">“</text>
<text transform="matrix(1 0 0 1 -1118.41 550.0878)" class="st2" style="font-family:'NanumSquareOTFB-KSCpc-EUC-H'; font-size:20px;">시장에 대한 불신</text>
<text transform="matrix(1 0 0 1 -980.11 550.0878)" class="st2" style="font-family:'NanumSquareOTFB-KSCpc-EUC-H'; font-size:18px;">이 반영된 것”</text>
<text transform="matrix(1 0 0 1 -1139.52 488.0678)" class="st2" style="font-family:'NanumSquareOTFB-KSCpc-EUC-H'; font-size:14.97px;">“</text>
<text transform="matrix(1 0 0 1 -1134.2 488.0678)" class="st2" style="font-family:'NanumSquareOTFB-KSCpc-EUC-H'; font-size:15.91px;">개인 직거래 비중</text>
<text transform="matrix(1 0 0 1 -1024.24 488.0678)" class="st2" style="font-family:'NanumSquareOTFB-KSCpc-EUC-H'; font-size:14.97px;">이 미국, 독일 등 해외시장</text>
<text transform="matrix(1 0 0 1 -1126.1799 509.5878)" class="st2" style="font-family:'NanumSquareOTFB-KSCpc-EUC-H'; font-size:14.97px;">(30% 수준)보다 </text>
<text transform="matrix(1 0 0 1 -1021.6401 509.5878)" class="st2" style="font-family:'NanumSquareOTFB-KSCpc-EUC-H'; font-size:14.97px;">이례적으로 높은 수치</text>
<text transform="matrix(1 0 0 1 -890.7001 509.5878)" class="st2" style="font-family:'NanumSquareOTFB-KSCpc-EUC-H'; font-size:14.97px;">!”</text>
<line class="st6" x1="-1119" y1="558.6" x2="-887" y2="558.6"/>
<line class="st6" x1="-959.5" y1="289.6" x2="-858" y2="289.6"/>
<text transform="matrix(1 0 0 1 -1040.1 459.0578)" class="st2" style="font-family:'NanumSquareOTFB-KSCpc-EUC-H'; font-size:16px;">국토교통부</text>
<g id="Layer_1_2_">
	<rect x="-1659" y="-38.9" class="st0" width="390" height="844"/>
	<g class="st1">
		<text transform="matrix(1 0 0 1 -1618.577 225.1178)" style="font-family:'NanumSquareOTFB-KSCpc-EUC-H'; font-size:20.81px;">착한 중고차 시세란?</text>
	</g>
	
		<text transform="matrix(1 0 0 1 -1620.577 224.1178)" class="st2" style="font-family:'NanumSquareOTFB-KSCpc-EUC-H'; font-size:20.81px;">착한 중고차 시세란?</text>
	<path class="st2" d="M-1323.9,38.3h-271.2c-7.7,0-13.9,6.2-13.9,13.9l0,0V102h299V52.2C-1310,44.5-1316.2,38.3-1323.9,38.3z"/>
	<path class="st2" d="M-1609,150c0,7.7,6.2,13.9,13.9,13.9h271.2c7.7,0,13.9-6.2,13.9-13.9v-44.2h-299V150z"/>
	<path class="st3" d="M-1560.3,82.7c-2.7,0-5.3-0.6-7.7-1.8c-6.9-4-9.4-12.8-5.4-19.7c0,0,0-0.1,0-0.1c1.3-2.1,3.1-3.9,5.4-5.1
		c4.4-2.3,9.6-2.5,14.2-0.6c1.9,0.8,3.6,2,4.9,3.6l-4.1,3.8c-1.7-2.1-4.3-3.3-6.9-3.2c-1.6,0-3.2,0.4-4.6,1.1
		c-1.3,0.7-2.4,1.8-3.2,3.1c-1.5,2.9-1.5,6.3,0,9.2c0.7,1.3,1.8,2.4,3.2,3.2c1.4,0.8,3,1.1,4.6,1.1c2.7,0,5.2-1.1,6.9-3.2l4.1,3.8
		c-1.3,1.6-3,2.9-4.9,3.7C-1555.8,82.4-1558,82.8-1560.3,82.7z M-1519.3,54.7v27.6h-6.4V70.9h-12.5v11.3h-6.4V54.7h6.4v10.9h12.5
		V54.7H-1519.3z M-1500.3,54.2c2.3-0.1,4.6,0.5,6.7,1.5c1.9,1,3.4,2.5,4.4,4.4c1.1,2.2,1.7,4.6,1.6,7.1v15.1h-6.4v-6.6h-12.7v6.6
		h-6.3V67.2c-0.1-2.4,0.5-4.9,1.6-7.1c1-1.9,2.5-3.4,4.4-4.4C-1504.9,54.6-1502.6,54.1-1500.3,54.2L-1500.3,54.2z M-1494,70.5v-3.9
		c0.1-1.9-0.5-3.7-1.7-5.2c-2.6-2.3-6.6-2.3-9.3,0c-1.2,1.4-1.8,3.3-1.7,5.2v3.9L-1494,70.5z M-1482.5,68.7h11.2v4.9h-11.2
		L-1482.5,68.7z M-1362.2,54.2c2.9-0.2,5.7,1,7.7,3.1c1.8,2,2.8,5,2.8,8.8v16.2h-6.4v-16c0.1-1.8-0.4-3.6-1.6-5
		c-1.1-1.2-2.7-1.8-4.3-1.7c-1.7-0.1-3.4,0.6-4.7,1.8c-1.3,1.5-1.9,3.4-1.7,5.3v15.5h-6.4V54.7h6.2v3.4c0.9-1.2,2.1-2.2,3.6-2.8
		C-1365.6,54.5-1363.9,54.2-1362.2,54.2z M-1523.7,132.3c4.6-0.4,7.6-2.1,8.8-4.4c1.3,2.3,4.3,4,8.8,4.4l1.2-2.7
		c-4.5-0.4-6.9-2-7.5-3.6h6.4v-2.8h-17.9v2.8h6.4c-0.6,1.6-3,3.2-7.5,3.6L-1523.7,132.3z M-1510,142.1c0,1.2-1.7,1.7-4.9,1.7
		s-4.9-0.5-4.9-1.7s1.7-1.8,4.9-1.8S-1510,140.8-1510,142.1z M-1503.9,136v-2.8h-21.9v2.8h9.2v1.8c-4.2,0.3-6.7,1.8-6.7,4.3
		c0,2.8,3.2,4.4,8.4,4.4s8.4-1.6,8.4-4.4c0-2.5-2.5-4-6.6-4.3V136H-1503.9z M-1482.7,138.2c0.7-3.8,1.1-7.7,1-11.6v-2.3h-17.7v2.8
		h14.1c0.1,3.6-0.3,7.2-1,10.7L-1482.7,138.2z M-1490.3,140.7v-8.3h-3.5v8.3h-7.7v2.8h21.9v-2.8H-1490.3z M-1468.6,128.9h4.8v-2.8
		h-4.8v-3.4h-3.5v3.4h-4.9v2.8h4.9v0.8c0.1,4-2.1,7.7-5.7,9.5l1.9,2.7c2.7-1.3,4.7-3.7,5.6-6.6c0.9,2.7,2.8,4.9,5.3,6.2l1.8-2.6
		c-3.4-1.7-5.6-5.3-5.5-9.1V128.9z M-1455,131.6h-3.5v-9.4h-3.5v24.2h3.5v-11.9h3.5V131.6z M-1436.4,124.1h-3.4v3.5
		c0,4.7-2,9.4-6.2,11.2l2.1,2.9c2.9-1.5,5-4.1,5.9-7.2c0.9,2.9,3,5.3,5.7,6.6l2-2.8c-4.1-1.8-6-6.2-6-10.7L-1436.4,124.1z
		 M-1429.2,122.2v24.3h3.5v-24.3L-1429.2,122.2z M-1413.9,124.3h-3.3v4.1c0,4.1-1.3,8.5-4.8,10.6l2.1,2.6c2.2-1.5,3.8-3.7,4.4-6.3
		c0.6,2.4,2.1,4.4,4.1,5.8l1.9-2.7c-3.3-2.2-4.3-6.2-4.3-10.1V124.3z M-1409.1,130.4h-3v2.8h3v12.1h3.2v-22.7h-3.2V130.4z
		 M-1404.2,122.2v24.2h3.3v-24.2L-1404.2,122.2z M-1387.8,136.5c4.2-0.8,7.3-2.9,8.8-5.8c1.5,2.8,4.6,4.9,8.9,5.6l1.3-2.7
		c-5.2-0.8-8-3.7-8.3-6.8h7.2v-2.8h-18.2v2.8h7.3c-0.3,3.1-3.1,6.2-8.2,7L-1387.8,136.5z M-1377.3,140.8v-5.3h-3.5v5.3h-9.2v2.8
		h21.9v-2.8H-1377.3z M-1350.7,124.9h-5.5v-2.6h-3.5v2.6h-5.5v2.7h14.6L-1350.7,124.9z M-1360.7,133.1c0-1.3,1.1-2,2.7-2
		c1.6,0,2.7,0.7,2.7,2s-1.1,1.9-2.7,1.9S-1360.6,134.4-1360.7,133.1L-1360.7,133.1z M-1356.3,137.5c2.6-0.5,4.3-2.1,4.3-4.4
		c0-2.7-2.5-4.6-6-4.6s-6,1.8-6,4.6c0,2.2,1.7,3.9,4.3,4.4v2.1c-2.2,0.1-4.2,0.1-6,0.1l0.4,2.8c5.1,0.1,10.1-0.2,15.2-1l-0.3-2.5
		c-1.9,0.3-3.9,0.4-5.8,0.5L-1356.3,137.5z M-1349.2,122.2v24.2h3.5v-24.2L-1349.2,122.2z"/>
	<path class="st0" d="M-1452.9,82.7c-2.7,0-5.3-0.6-7.7-1.8c-6.9-4-9.4-12.8-5.4-19.8c0,0,0,0,0,0c1.3-2.1,3.1-3.9,5.4-5.1
		c4.4-2.3,9.6-2.5,14.2-0.6c1.9,0.8,3.6,2,4.9,3.6l-4.1,3.8c-1.7-2.1-4.3-3.3-6.9-3.2c-1.6,0-3.2,0.4-4.6,1.1
		c-1.3,0.7-2.4,1.8-3.2,3.1c-1.5,2.9-1.5,6.3,0,9.2c0.7,1.3,1.8,2.4,3.2,3.2c1.4,0.8,3,1.1,4.6,1.1c2.7,0,5.3-1.2,6.9-3.3l4.1,3.8
		c-1.3,1.6-3,2.9-4.9,3.7C-1448.5,82.3-1450.7,82.8-1452.9,82.7z M-1424.8,54.2c2.3-0.1,4.6,0.5,6.7,1.5c1.9,1,3.4,2.5,4.4,4.4
		c1.1,2.2,1.7,4.6,1.6,7.1v15.1h-6.4v-6.6h-12.6v6.6h-6.3V67.2c-0.1-2.4,0.5-4.9,1.6-7.1c1-1.9,2.5-3.4,4.4-4.4
		C-1429.4,54.6-1427.1,54.1-1424.8,54.2z M-1418.5,70.5v-3.9c0.1-1.9-0.5-3.7-1.7-5.2c-2.6-2.3-6.6-2.3-9.3,0
		c-1.2,1.4-1.8,3.3-1.7,5.2v3.9H-1418.5z M-1388.2,82.3l-5.3-7.7h-5.9v7.7h-6.4V54.7h11.9c2.2-0.1,4.3,0.4,6.3,1.2
		c1.7,0.7,3.2,1.9,4.2,3.5c1,1.6,1.5,3.4,1.5,5.3c0.1,3.8-2.1,7.3-5.7,8.7l6.2,8.9H-1388.2z M-1388.4,64.7c0.1-1.4-0.5-2.7-1.5-3.6
		c-1.3-0.9-2.8-1.4-4.4-1.3h-5.2v9.6h5.2c1.6,0.1,3.1-0.3,4.4-1.3C-1388.8,67.3-1388.3,66-1388.4,64.7L-1388.4,64.7z M-1567.1,133.6
		c-3.8-1-5.5-3.6-5.6-6.1h4.8v-2.7h-4.8v-2.6h-3.5v2.6h-4.7v2.7h4.7c0,2.7-1.7,5.4-5.6,6.5l1.7,2.7c2.5-0.7,4.6-2.4,5.7-4.7
		c1.2,2.1,3.3,3.7,5.7,4.2L-1567.1,133.6z M-1578.7,140.8h12.7v5.6h3.5v-8.4h-16.2V140.8z M-1559.3,128.2h-3.2v-6h-3.4v14.8h3.5v-6
		h3.2L-1559.3,128.2z M-1543.1,124.8h-5.4v-2.6h-3.5v2.6h-5.4v2.7h14.2L-1543.1,124.8z M-1552.9,133.1c0-1.3,1.1-2,2.6-2
		s2.6,0.7,2.6,2s-1.1,2-2.6,2S-1552.9,134.4-1552.9,133.1z M-1544.3,133.1c0-2.7-2.5-4.7-5.9-4.7s-5.9,1.9-5.9,4.7s2.5,4.7,5.9,4.7
		S-1544.3,135.8-1544.3,133.1z M-1550.5,139.1h-3.5v7h16.5v-2.8h-13L-1550.5,139.1z M-1538.3,129.7v-7.4h-3.5v18.1h3.5v-7.9h3.2
		v-2.9H-1538.3z"/>
	<circle class="st2" cx="-1612" cy="200.1" r="3"/>
	<circle class="st2" cx="-1593" cy="200.1" r="3"/>
	<circle class="st2" cx="-1571" cy="529.1" r="3"/>
	<circle class="st2" cx="-1552" cy="529.1" r="3"/>
	
		<text transform="matrix(1 0 0 1 -1608.647 281.0578)" class="st2" style="font-family:'NanumSquareOTFB-KSCpc-EUC-H'; font-size:17px;">작년 국내 중고차 거래량은 연간 </text>
	
		<text transform="matrix(1 0 0 1 -1386.287 281.0578)" class="st2" style="font-family:'NanumSquareOTFB-KSCpc-EUC-H'; font-size:19px;">250만대</text>
	
		<image style="overflow:visible;opacity:0.75;enable-background:new    ;" width="343" height="80" xlink:href="7C113AE3.png"  transform="matrix(1 0 0 1 -1630.9769 240.0578)">
	</image>
	<path class="st4" d="M-1607.5,249.1h296c6.4,0,11.5,5.1,11.5,11.5v33c0,6.4-5.1,11.5-11.5,11.5h-296c-6.4,0-11.5-5.1-11.5-11.5v-33
		C-1619,254.2-1613.8,249.1-1607.5,249.1z"/>
	
		<image style="overflow:visible;opacity:0.75;enable-background:new    ;" width="349" height="188" xlink:href="7C113AE0.png"  transform="matrix(0.9947 0 0 0.9947 -1632.8988 416.7078)">
	</image>
	<path class="st5" d="M-1607.5,428.1h296c6.4,0,11.5,5.1,11.5,11.5v134.5c0,6.4-5.1,11.5-11.5,11.5h-296c-6.4,0-11.5-5.1-11.5-11.5
		V439.6C-1619,433.2-1613.8,428.1-1607.5,428.1z"/>
	
		<text transform="matrix(1 0 0 1 -1620.9769 338.0578)" class="st2" style="font-family:'NanumSquareOTFB-KSCpc-EUC-H'; font-size:16px;">250만대 거래중, 매매상의 개입 없이 당사자들이 </text>
	
		<text transform="matrix(1 0 0 1 -1620.9769 367.0578)" class="st2" style="font-family:'NanumSquareOTFB-KSCpc-EUC-H'; font-size:18px;">직접 중고차를 거래</text>
	
		<text transform="matrix(1 0 0 1 -1480.037 367.0578)" class="st2" style="font-family:'NanumSquareOTFB-KSCpc-EUC-H'; font-size:16px;">하는 비중이 54.7%으로 </text>
	
		<text transform="matrix(1 0 0 1 -1620.9769 395.0578)" class="st2" style="font-family:'NanumSquareOTFB-KSCpc-EUC-H'; font-size:16px;">약 137만 6000대가 거래 되었습니다.</text>
	
		<text transform="matrix(1 0 0 1 -1624.8569 646.0577)" class="st2" style="font-family:'NanumSquareOTFB-KSCpc-EUC-H'; font-size:16px;">이처럼 혼란스러운 중고차시장에 인공지능을 활용</text>
	
		<text transform="matrix(1 0 0 1 -1624.8569 670.0577)" class="st2" style="font-family:'NanumSquareOTFB-KSCpc-EUC-H'; font-size:16px;">중고차의 착한시세를 예측하는 서비스 입니다.</text>
	
		<text transform="matrix(1 0 0 1 -1585.277 550.0878)" class="st2" style="font-family:'NanumSquareOTFB-KSCpc-EUC-H'; font-size:18px;">“</text>
	
		<text transform="matrix(1 0 0 1 -1578.887 550.0878)" class="st2" style="font-family:'NanumSquareOTFB-KSCpc-EUC-H'; font-size:20px;">시장에 대한 불신</text>
	
		<text transform="matrix(1 0 0 1 -1440.587 550.0878)" class="st2" style="font-family:'NanumSquareOTFB-KSCpc-EUC-H'; font-size:18px;">이 반영된 것”</text>
	
		<text transform="matrix(1 0 0 1 -1599.9969 488.0678)" class="st2" style="font-family:'NanumSquareOTFB-KSCpc-EUC-H'; font-size:14.97px;">“</text>
	
		<text transform="matrix(1 0 0 1 -1594.677 488.0678)" class="st2" style="font-family:'NanumSquareOTFB-KSCpc-EUC-H'; font-size:15.91px;">개인 직거래 비중</text>
	
		<text transform="matrix(1 0 0 1 -1484.717 488.0678)" class="st2" style="font-family:'NanumSquareOTFB-KSCpc-EUC-H'; font-size:14.97px;">이 미국, 독일 등 해외시장</text>
	
		<text transform="matrix(1 0 0 1 -1586.657 509.5878)" class="st2" style="font-family:'NanumSquareOTFB-KSCpc-EUC-H'; font-size:14.97px;">(30% 수준)보다 </text>
	
		<text transform="matrix(1 0 0 1 -1482.1171 509.5878)" class="st2" style="font-family:'NanumSquareOTFB-KSCpc-EUC-H'; font-size:14.97px;">이례적으로 높은 수치</text>
	
		<text transform="matrix(1 0 0 1 -1351.177 509.5878)" class="st2" style="font-family:'NanumSquareOTFB-KSCpc-EUC-H'; font-size:14.97px;">!”</text>
	<line class="st6" x1="-1579.5" y1="558.6" x2="-1347.5" y2="558.6"/>
	<line class="st6" x1="-1420" y1="289.6" x2="-1318.5" y2="289.6"/>
	
		<text transform="matrix(1 0 0 1 -1500.577 459.0578)" class="st2" style="font-family:'NanumSquareOTFB-KSCpc-EUC-H'; font-size:16px;">국토교통부</text>
</g>
<g>
	
		<image style="overflow:visible;opacity:0.3;" width="425" height="49" xlink:href="7C113AEE.png"  transform="matrix(1 0 0 1 -495.9849 202.0499)">
	</image>
	<g>
		<path class="st2" d="M-88,239.3h-390v0c0-7.8,6.4-14.2,14.2-14.2h361.6C-94.4,225.1-88,231.5-88,239.3L-88,239.3z"/>
	</g>
</g>
<g>
	
		<image style="overflow:visible;opacity:0.75;" width="330" height="89" xlink:href="7C113AE5.png"  transform="matrix(1 0 0 1 -447.977 116.0577)">
	</image>
	<g>
		<path class="st2" d="M-432.5,168.9c0,7.7,6.2,13.9,13.9,13.9h271.2c7.7,0,13.9-6.2,13.9-13.9v-44.2h-299V168.9z"/>
	</g>
</g>
<text transform="matrix(1 0 0 1 -412.31 162.7689)"><tspan x="0" y="0" class="st0 st7 st8">착한</tspan><tspan x="52.8" y="0" class="st7 st8"> 중고차 시세 </tspan><tspan x="206.5" y="0" class="st0 st7 st8">결과</tspan></text>
<rect class="st0" width="390" height="239.3"/>
<g>
	
		<image style="overflow:visible;opacity:0.75;" width="330" height="95" xlink:href="7C113AE7.png"  transform="matrix(1 0 0 1 30.023 47.0577)">
	</image>
	<g>
		<path class="st2" d="M330.6,55.6H59.4c-7.7,0-13.9,6.2-13.9,13.9l0,0v49.8h299V69.5C344.5,61.8,338.3,55.6,330.6,55.6z"/>
	</g>
</g>
<path class="st3" d="M94.2,100.1c-2.7,0-5.3-0.6-7.7-1.8c-6.9-4-9.4-12.8-5.4-19.7c0,0,0-0.1,0-0.1c1.3-2.1,3.1-3.9,5.4-5.1
	c4.4-2.3,9.6-2.5,14.2-0.6c1.9,0.8,3.6,2,4.9,3.6l-4.1,3.8c-1.7-2.1-4.3-3.3-6.9-3.2c-1.6,0-3.2,0.4-4.6,1.1
	c-1.3,0.7-2.4,1.8-3.2,3.1c-1.5,2.9-1.5,6.3,0,9.2c0.7,1.3,1.8,2.4,3.2,3.2c1.4,0.8,3,1.1,4.6,1.1c2.7,0,5.2-1.1,6.9-3.2l4.1,3.8
	c-1.3,1.6-3,2.9-4.9,3.7C98.7,99.7,96.4,100.1,94.2,100.1z M135.2,72v27.6h-6.4V88.3h-12.5v11.3h-6.4V72h6.4v10.9h12.5V72H135.2z
	 M154.2,71.5c2.3-0.1,4.6,0.5,6.7,1.5c1.9,1,3.4,2.5,4.4,4.4c1.1,2.2,1.7,4.6,1.6,7.1v15.1h-6.4V93h-12.7v6.6h-6.3V84.5
	c-0.1-2.4,0.5-4.9,1.6-7.1c1-1.9,2.5-3.4,4.4-4.4C149.6,72,151.9,71.5,154.2,71.5L154.2,71.5z M160.5,87.9v-3.9
	c0.1-1.9-0.5-3.7-1.7-5.2c-2.6-2.3-6.6-2.3-9.3,0c-1.2,1.4-1.8,3.3-1.6,5.2v3.9L160.5,87.9z M172,86h11.2V91h-11.2L172,86z
	 M292.3,71.5c2.9-0.2,5.7,1,7.7,3.1c1.8,2,2.8,5,2.8,8.8v16.2h-6.4v-16c0.1-1.8-0.4-3.6-1.6-5c-1.1-1.2-2.7-1.8-4.3-1.7
	c-1.7-0.1-3.4,0.6-4.7,1.8c-1.3,1.5-1.9,3.4-1.7,5.3v15.5h-6.4V72h6.2v3.4c0.9-1.2,2.1-2.2,3.5-2.8
	C288.9,71.9,290.6,71.5,292.3,71.5z"/>
<path class="st0" d="M201.6,100.1c-2.7,0-5.3-0.6-7.6-1.8c-6.9-4-9.4-12.8-5.4-19.8c0,0,0,0,0,0c1.3-2.1,3.1-3.9,5.4-5.1
	c4.4-2.3,9.6-2.5,14.1-0.6c1.9,0.8,3.6,2,4.9,3.6l-4.1,3.8c-1.7-2.1-4.3-3.3-6.9-3.2c-1.6,0-3.2,0.4-4.6,1.1
	c-1.3,0.7-2.4,1.8-3.1,3.1c-1.5,2.9-1.5,6.3,0,9.2c0.7,1.3,1.8,2.4,3.1,3.2c1.4,0.8,3,1.1,4.6,1.1c2.7,0,5.3-1.2,6.9-3.3l4.1,3.8
	c-1.3,1.6-3,2.9-4.9,3.7C206,99.7,203.8,100.1,201.6,100.1z M229.7,71.5c2.3-0.1,4.6,0.5,6.7,1.5c1.9,1,3.4,2.5,4.4,4.4
	c1.1,2.2,1.7,4.6,1.6,7.1v15.1H236V93h-12.6v6.6H217V84.5c-0.1-2.4,0.5-4.9,1.6-7.1c1-1.9,2.5-3.4,4.4-4.4
	C225.1,72,227.4,71.5,229.7,71.5z M235.9,87.9v-3.9c0.1-1.9-0.5-3.7-1.7-5.2c-2.6-2.3-6.6-2.3-9.3,0c-1.2,1.4-1.8,3.3-1.6,5.2v3.9
	H235.9z M266.2,99.6l-5.3-7.7H255v7.7h-6.4V72h11.9c2.2-0.1,4.3,0.4,6.4,1.2c1.7,0.7,3.2,1.9,4.2,3.5c1,1.6,1.5,3.4,1.5,5.3
	c0.1,3.8-2.1,7.3-5.7,8.7l6.2,8.9H266.2z M266.1,82c0.1-1.4-0.5-2.7-1.5-3.6c-1.3-0.9-2.8-1.4-4.4-1.3H255v9.6h5.2
	c1.6,0.1,3.1-0.3,4.4-1.3C265.6,84.7,266.2,83.4,266.1,82L266.1,82z"/>
<g>
	
		<image style="overflow:visible;opacity:0.3;" width="425" height="49" xlink:href="7C113AE4.png"  transform="matrix(1 0 0 1 -17.9848 202.0499)">
	</image>
	<g>
		<path class="st2" d="M390,239.3H0v0c0-7.8,6.4-14.2,14.2-14.2h361.6C383.6,225.1,390,231.5,390,239.3L390,239.3z"/>
	</g>
</g>
<g>
	
		<image style="overflow:visible;opacity:0.75;" width="330" height="89" xlink:href="EE7D82F5.png"  transform="matrix(1 0 0 1 30.023 116.0577)">
	</image>
	<g>
		<path class="st2" d="M45.5,168.9c0,7.7,6.2,13.9,13.9,13.9h271.2c7.7,0,13.9-6.2,13.9-13.9v-44.2h-299V168.9z"/>
	</g>
</g>
<text transform="matrix(1 0 0 1 65.69 162.7689)"><tspan x="0" y="0" class="st0 st7 st8">착한</tspan><tspan x="52.8" y="0" class="st7 st8"> 중고차 시세 </tspan><tspan x="206.5" y="0" class="st0 st7 st8">결과</tspan></text>
<rect y="262.1" class="st0" width="390" height="844"/>
<text transform="matrix(1 0 0 1 420.9448 297.6379)" style="font-family:'MyriadPro-Regular'; font-size:12px;">state={{ data: carinfo.carinfono}}</text>
<g>
	<path class="st2" d="M-257.9,836.7h-359.7c-8.4,0-15.2-6.8-15.2-15.2v-88.1c0-8.4,6.8-15.2,15.2-15.2h359.7
		c8.4,0,15.2,6.8,15.2,15.2v88.1C-242.8,829.9-249.6,836.7-257.9,836.7z"/>
	<path class="st2" d="M-257.9,837.7h-359.7c-8.4,0-15.2-6.8-15.2-15.2v-88.1c0-8.4,6.8-15.2,15.2-15.2h359.7
		c8.4,0,15.2,6.8,15.2,15.2v88.1C-242.8,830.9-249.6,837.7-257.9,837.7z"/>
	<g>
		<g>
			<defs>
				<rect id="SVGID_1_" x="-540.8" y="724.1" width="129.3" height="68"/>
			</defs>
			<clipPath id="SVGID_2_">
				<use xlink:href="#SVGID_1_"  style="overflow:visible;"/>
			</clipPath>
			<g style="clip-path:url(#SVGID_2_);">
				
					<image style="overflow:visible;" width="700" height="495" xlink:href="../../../../../Desktop/1139152_20181214152110_140_0001.jpg"  transform="matrix(0.2477 0 0 0.2477 -559.4873 698.8314)">
				</image>
			</g>
		</g>
		<text transform="matrix(1 0 0 1 -412.3046 776.3235)" style="font-family:'NanumSquareEB'; font-size:27px;">리스트</text>
	</g>
	<text transform="matrix(1 0 0 1 -610.7281 819.8235)"><tspan x="0" y="0" style="fill:#F6AF1D; font-family:'NanumSquareB'; font-size:15px;">KB</tspan><tspan x="19.3" y="0" style="fill:#595145; font-family:'NanumSquareB'; font-size:15px;">차차차</tspan><tspan x="60.3" y="0" style="font-family:'NanumSquareB'; font-size:15px;"> 중고차에 올라온 해당 차와 비슷한 모델의 차량</tspan></text>
</g>
</svg>
